#!OML:ASF F:\VICON\USERDATA\INSTALL\rory3\rory3.ASF
:FULLY-SPECIFIED
:DEGREES
267
root 13.588 17.9142 11.4961 -4.99456 -38.6385 6.82755
lowerback 13.0167 1.0932 -4.82693
upperback 1.15394 0.693594 -0.485529
thorax -6.14147 0.447541 2.08957
lowerneck -17.293 -10.025 -14.1097
upperneck 27.6219 -14.4253 12.4199
head 14.4098 -6.34168 4.66772
rclavicle -4.57205e-015 4.37326e-015
rhumerus -30.2871 -8.01158 -83.4045
rradius 39.0629
rwrist 2.87599
rhand -14.7562 10.7768
rfingers 7.12502
rthumb 11.3999 -18.8933
lclavicle -4.57205e-015 4.37326e-015
lhumerus -37.4165 1.89062 82.2758
lradius 32.2584
lwrist -6.96102
lhand -16.5601 28.0048
lfingers 7.12502
lthumb 9.65983 57.7633
rfemur -25.8427 -19.2358 14.4345
rtibia 53.0895
rfoot -13.1599 -5.63245
rtoes 10.655
lfemur -2.18565 1.0551 -22.3355
ltibia 16.3927
lfoot -6.50493 6.83074
ltoes -16.8065
268
root 13.5676 17.9123 11.5512 -4.9567 -39.9018 6.86198
lowerback 12.8662 1.04431 -4.67527
upperback 1.19575 0.656583 -0.534626
thorax -6.008 0.421099 1.96058
lowerneck -17.3066 -9.99094 -13.8441
upperneck 27.69 -14.4175 12.2497
head 14.3975 -6.33268 4.55583
rclavicle 1.68967e-015 1.07344e-014
rhumerus -30.0678 -8.25979 -83.4634
rradius 38.9768
rwrist 3.17705
rhand -14.5937 10.9673
rfingers 7.12502
rthumb 11.5566 -18.6941
lclavicle 1.68967e-015 1.07344e-014
lhumerus -37.3266 1.58704 82.0442
lradius 32.1295
lwrist -6.89434
lhand -16.6712 28.2604
lfingers 7.12502
lthumb 9.55262 58.0238
rfemur -26.4517 -19.689 14.6875
rtibia 52.0103
rfoot -13.125 -6.24611
rtoes 9.70763
lfemur -1.80581 1.22496 -22.3813
ltibia 16.1758
lfoot -6.49701 7.87913
ltoes -16.3079
269
root 13.5455 17.91 11.6046 -5.17642 -41.0868 7.27804
lowerback 12.8402 1.0627 -4.90319
upperback 1.18866 0.644414 -0.598731
thorax -6.00226 0.419529 2.02378
lowerneck -17.3807 -10.0374 -13.7392
upperneck 27.8158 -14.4944 12.1204
head 14.4584 -6.36816 4.46865
rclavicle -2.37051e-014 2.22639e-014
rhumerus -29.994 -8.33544 -83.4331
rradius 39.0441
rwrist 3.19707
rhand -14.5702 10.7858
rfingers 7.12502
rthumb 11.5792 -18.8743
lclavicle -2.37051e-014 2.22639e-014
lhumerus -37.2521 1.23865 81.9298
lradius 31.9368
lwrist -6.76723
lhand -16.8604 28.0124
lfingers 7.12502
lthumb 9.37001 57.7841
rfemur -27.0271 -20.116 14.5957
rtibia 50.9279
rfoot -12.9764 -6.74535
rtoes 9.40088
lfemur -1.41972 1.42665 -22.7387
ltibia 15.9359
lfoot -6.57774 8.88604
ltoes -15.5756
270
root 13.5229 17.911 11.6558 -5.33624 -42.2045 7.612
lowerback 12.8205 1.03311 -5.03525
upperback 1.15771 0.584237 -0.625213
thorax -6.02106 0.393722 2.08104
lowerneck -17.4843 -10.0615 -13.6266
upperneck 27.9722 -14.5191 11.9294
head 14.5228 -6.38623 4.36559
rclavicle -9.46712e-014 -1.98785e-015
rhumerus -29.9001 -8.22319 -83.4189
rradius 39.1008
rwrist 2.94541
rhand -14.62 10.6137
rfingers 7.12502
rthumb 11.5312 -19.0491
lclavicle -9.46712e-014 -1.98785e-015
lhumerus -37.2619 1.02035 81.8031
lradius 31.7885
lwrist -6.63902
lhand -17.3054 27.7299
lfingers 7.12502
lthumb 8.94067 57.5205
rfemur -27.5549 -20.4044 14.5325
rtibia 49.8239
rfoot -12.8404 -7.23157
rtoes 11.1187
lfemur -1.02888 1.72026 -23.0009
ltibia 15.5926
lfoot -6.65423 9.61525
ltoes -15.3329
271
root 13.4972 17.9146 11.7128 -5.45504 -43.384 7.8306
lowerback 12.7045 0.931184 -5.01209
upperback 1.15382 0.460471 -0.606379
thorax -5.95127 0.331208 2.11083
lowerneck -17.41 -10.0587 -13.7705
upperneck 27.9347 -14.4843 11.9364
head 14.4983 -6.39182 4.40052
rclavicle -4.67144e-015 2.38542e-015
rhumerus -29.7145 -8.10515 -83.4293
rradius 39.045
rwrist 2.89818
rhand -14.5363 10.6171
rfingers 7.12502
rthumb 11.6119 -19.0412
lclavicle -4.67144e-015 2.38542e-015
lhumerus -37.3909 1.19684 81.5369
lradius 31.7271
lwrist -6.93993
lhand -17.2548 27.5095
lfingers 7.12502
lthumb 8.98946 57.298
rfemur -27.9721 -20.6152 14.5337
rtibia 48.6881
rfoot -12.75 -7.71271
rtoes 14.9207
lfemur -0.538177 2.07768 -23.1774
ltibia 15.1876
lfoot -6.57734 10.3138
ltoes -15.3455
272
root 13.4692 17.9153 11.7679 -5.52286 -44.6276 7.98976
lowerback 12.4965 0.875473 -4.9202
upperback 1.21869 0.413365 -0.608675
thorax -5.76223 0.300212 2.06652
lowerneck -17.1875 -10.1287 -14.2559
upperneck 27.6049 -14.6506 12.5801
head 14.4497 -6.45285 4.70955
rclavicle -4.16454e-014 8.74653e-015
rhumerus -29.4901 -8.17964 -83.4533
rradius 39.0666
rwrist 2.9572
rhand -14.5233 10.4644
rfingers 7.12502
rthumb 11.6245 -19.1931
lclavicle -4.16454e-014 8.74653e-015
lhumerus -37.3222 1.28145 81.2836
lradius 31.5382
lwrist -7.38462
lhand -17.3675 27.4794
lfingers 7.12502
lthumb 8.88071 57.2726
rfemur -28.4097 -20.8585 14.6812
rtibia 47.5055
rfoot -12.6356 -8.34202
rtoes 18.7853
lfemur -0.0350258 2.23507 -23.3171
ltibia 14.7729
lfoot -6.50273 11.2891
ltoes -14.7264
273
root 13.4403 17.9109 11.8147 -5.67911 -45.825 8.20823
lowerback 12.3403 0.876 -4.84837
upperback 1.34254 0.431288 -0.673709
thorax -5.5443 0.298907 1.9561
lowerneck -17.1027 -10.1509 -14.3954
upperneck 27.3737 -14.7669 12.9904
head 14.409 -6.47736 4.87355
rclavicle 1.08039e-013 -1.55052e-014
rhumerus -29.249 -8.48007 -83.4256
rradius 39.1259
rwrist 3.00871
rhand -14.3018 10.5143
rfingers 7.12502
rthumb 11.8381 -19.1311
lclavicle 1.08039e-013 -1.55052e-014
lhumerus -37.0155 0.946093 81.1241
lradius 31.179
lwrist -7.67764
lhand -18.0749 27.4799
lfingers 7.12502
lthumb 8.19805 57.3008
rfemur -28.8417 -21.2049 14.8531
rtibia 46.2868
rfoot -12.1906 -9.14657
rtoes 20.6703
lfemur 0.543655 2.26478 -23.4951
ltibia 14.2341
lfoot -6.43286 12.4121
ltoes -14.2265
274
root 13.4078 17.9081 11.8584 -5.85765 -46.9782 8.456
lowerback 12.268 0.856069 -4.8861
upperback 1.38094 0.403886 -0.679294
thorax -5.46176 0.283307 1.97681
lowerneck -16.9931 -10.039 -14.2727
upperneck 27.3017 -14.6044 12.8694
head 14.2985 -6.41687 4.83907
rclavicle -8.84592e-015 3.97569e-015
rhumerus -29.0928 -8.69874 -83.3154
rradius 39.0782
rwrist 3.0209
rhand -14.1401 10.9187
rfingers 7.12502
rthumb 11.9941 -18.7176
lclavicle -8.84592e-015 3.97569e-015
lhumerus -36.86 0.735337 80.9682
lradius 30.8434
lwrist -7.95133
lhand -18.3902 27.4287
lfingers 7.12502
lthumb 7.8937 57.2613
rfemur -29.2198 -21.3907 14.9833
rtibia 45.0289
rfoot -11.5392 -10.0926
rtoes 21.9044
lfemur 1.14008 2.56214 -23.6425
ltibia 13.6054
lfoot -6.36555 13.2435
ltoes -13.9147
275
root 13.3722 17.9138 11.9024 -5.99257 -48.1003 8.71455
lowerback 12.2936 0.796029 -5.01944
upperback 1.27987 0.305348 -0.622557
thorax -5.57708 0.243032 2.12776
lowerneck -17.0495 -9.92011 -14.1391
upperneck 27.547 -14.3924 12.5354
head 14.3312 -6.35003 4.72974
rclavicle -1.65488e-014 1.70955e-014
rhumerus -29.1033 -8.61738 -83.2585
rradius 39.0341
rwrist 2.96586
rhand -14.4871 10.9392
rfingers 7.12502
rthumb 11.6594 -18.7164
lclavicle -1.65488e-014 1.70955e-014
lhumerus -36.9963 0.790871 80.7602
lradius 30.616
lwrist -8.28077
lhand -18.4221 26.9844
lfingers 7.12502
lthumb 7.86291 56.8182
rfemur -29.6084 -21.5784 15.1206
rtibia 43.7513
rfoot -10.8931 -10.9882
rtoes 23.0224
lfemur 1.6936 3.02872 -23.7805
ltibia 12.9198
lfoot -6.12713 13.8701
ltoes -15.0381
276
root 13.3361 17.9238 11.9481 -6.03566 -49.1351 8.78502
lowerback 12.4335 0.682065 -5.03332
upperback 1.1538 0.147994 -0.503883
thorax -5.77725 0.174859 2.28688
lowerneck -17.3277 -9.84346 -13.9079
upperneck 28.0352 -14.1992 11.964
head 14.4905 -6.29842 4.50069
rclavicle -3.18552e-014 1.90833e-014
rhumerus -29.1956 -8.35211 -83.1948
rradius 39.1036
rwrist 3.01749
rhand -14.7733 10.5237
rfingers 7.12502
rthumb 11.3834 -19.1473
lclavicle -3.18552e-014 1.90833e-014
lhumerus -37.2408 0.884434 80.5867
lradius 30.4219
lwrist -8.54394
lhand -18.7313 26.6423
lfingers 7.12502
lthumb 7.56448 56.4871
rfemur -29.837 -21.6668 15.3317
rtibia 42.4548
rfoot -10.3312 -11.9951
rtoes 24.1185
lfemur 2.33254 3.44017 -23.8144
ltibia 12.1679
lfoot -5.55017 14.4659
ltoes -17.1617
277
root 13.2971 17.9254 11.9943 -6.11409 -50.1164 8.85154
lowerback 12.5232 0.572812 -5.01251
upperback 1.10452 0.00553432 -0.403632
thorax -5.86845 0.108911 2.4056
lowerneck -17.5438 -9.79911 -13.7673
upperneck 28.3365 -14.0807 11.615
head 14.6014 -6.26639 4.35858
rclavicle 9.59136e-015 9.54166e-015
rhumerus -29.2374 -8.27208 -83.0828
rradius 39.173
rwrist 3.33676
rhand -14.7321 10.2958
rfingers 7.12502
rthumb 11.4231 -19.373
lclavicle 9.59136e-015 9.54166e-015
lhumerus -37.3624 0.893709 80.4619
lradius 30.2909
lwrist -8.54592
lhand -18.9541 26.9627
lfingers 7.12502
lthumb 7.34943 56.815
rfemur -29.9122 -21.2821 15.4375
rtibia 41.1415
rfoot -9.83151 -13.444
rtoes 25.1779
lfemur 3.05223 3.60312 -23.8768
ltibia 11.3644
lfoot -5.02287 15.2449
ltoes -18.2214
278
root 13.2598 17.923 12.0388 -6.21897 -51.0237 9.04654
lowerback 12.5272 0.462458 -4.9839
upperback 1.05492 -0.1358 -0.364781
thorax -5.91207 0.0415035 2.45507
lowerneck -17.6461 -9.77167 -13.7205
upperneck 28.4848 -14.0154 11.4547
head 14.6577 -6.25042 4.29832
rclavicle -7.50412e-015 -8.34896e-015
rhumerus -29.2539 -8.23705 -83.0123
rradius 39.2044
rwrist 3.50127
rhand -14.8477 10.092
rfingers 7.12502
rthumb 11.3117 -19.583
lclavicle -7.50412e-015 -8.34896e-015
lhumerus -37.4507 0.935399 80.3103
lradius 30.2348
lwrist -8.60004
lhand -18.9113 27.5343
lfingers 7.12502
lthumb 7.3908 57.3852
rfemur -30.0679 -21.1006 15.4762
rtibia 39.8182
rfoot -9.1809 -14.6489
rtoes 25.9993
lfemur 3.69285 3.64584 -24.0286
ltibia 10.5297
lfoot -4.63765 16.0156
ltoes -18.1985
279
root 13.2221 17.9289 12.0812 -6.26345 -51.9016 9.19248
lowerback 12.4924 0.318972 -4.87496
upperback 1.00044 -0.307369 -0.326313
thorax -5.93702 -0.0429938 2.46388
lowerneck -17.6124 -9.69649 -13.7219
upperneck 28.5081 -13.8718 11.3257
head 14.623 -6.20882 4.27711
rclavicle 1.54257e-013 -3.33958e-014
rhumerus -29.2695 -8.18825 -82.9536
rradius 39.2387
rwrist 3.26381
rhand -14.8877 9.94287
rfingers 7.12502
rthumb 11.2731 -19.7342
lclavicle 1.54257e-013 -3.33958e-014
lhumerus -37.5265 1.04008 80.1504
lradius 30.1197
lwrist -8.81204
lhand -18.8408 27.7266
lfingers 7.12502
lthumb 7.45885 57.5751
rfemur -30.2573 -21.303 15.5881
rtibia 38.5201
rfoot -8.42257 -15.2987
rtoes 26.5805
lfemur 4.37815 3.96052 -24.1058
ltibia 9.54462
lfoot -4.37574 16.4147
ltoes -17.5647
